<svg width="148" height="137" viewBox="0 0 148 137" fill="none" xmlns="http://www.w3.org/2000/svg"><g filter="url(#filter0_d_949_104903)"><path d="M52.1758 110.47L104.154 95.8201C106.453 95.1665 108.398 93.6279 109.563 91.5418C110.728 89.4557 111.018 86.9926 110.37 84.6929L95.6824 32.5805C95.0347 30.2806 93.5011 28.3314 91.4181 27.1608C89.335 25.9902 86.8727 25.6938 84.5713 26.3365L32.5927 40.986C30.2944 41.6396 28.3493 43.1782 27.1841 45.2643C26.0189 47.3504 25.7289 49.8135 26.3776 52.1132L41.0648 104.226C41.7124 106.526 43.246 108.475 45.329 109.645C47.4121 110.816 49.8744 111.112 52.1758 110.47V110.47Z" fill="#303C42"></path></g><path d="M47.2177 102.46L43.9014 90.8947L58.3234 86.7592L62.469 101.216L50.9306 104.525C50.1645 104.743 49.3431 104.648 48.647 104.261C47.9508 103.874 47.4367 103.226 47.2177 102.46Z" fill="#8A8D92"></path><path d="M51.6896 63.6289L37.2695 67.7638L42.244 85.112L56.6641 80.9771L51.6896 63.6289Z" fill="#8A8D92"></path><path d="M102.842 89.6402L91.3067 92.948L87.1611 78.4909L101.583 74.3554L104.9 85.9208C105.12 86.6869 105.027 87.509 104.641 88.2064C104.255 88.9039 103.608 89.4196 102.842 89.6402Z" fill="#8A8D92"></path><path d="M94.9494 51.2244L80.5293 55.3593L85.5038 72.7075L99.9239 68.5726L94.9494 51.2244Z" fill="#8A8D92"></path><path d="M89.9734 33.8756L93.29 45.4417L75.9861 50.4035C75.6069 50.5126 75.253 50.6954 74.9445 50.9413C74.636 51.1873 74.379 51.4917 74.1882 51.837C73.9974 52.1824 73.8765 52.5619 73.8325 52.954C73.7884 53.3461 73.8221 53.743 73.9315 54.1221L85.5387 94.6012L68.2342 99.5631L51.6523 41.7353L86.26 31.8117C87.0261 31.5935 87.8475 31.6883 88.5438 32.0753C89.24 32.4623 89.7542 33.1098 89.9734 33.8756Z" fill="#8A8D92"></path><path d="M34.3496 46.6971L45.8879 43.3885L50.0334 57.8456L35.6113 61.9811L32.295 50.4156C32.0749 49.6501 32.1677 48.8285 32.5529 48.1312C32.9381 47.434 33.5843 46.9182 34.3496 46.6971V46.6971Z" fill="#8A8D92"></path><g filter="url(#filter1_d_949_104903)"><path d="M77.002 101.716L131.225 96.9796C133.624 96.7644 135.839 95.6064 137.385 93.7598C138.931 91.9131 139.681 89.5286 139.471 87.1295L134.722 32.7668C134.513 30.3676 133.361 28.1493 131.519 26.5986C129.676 25.0479 127.293 24.2916 124.894 24.4955L70.6706 29.2318C68.2719 29.4471 66.0566 30.605 64.5108 32.4517C62.9649 34.2983 62.2147 36.6828 62.4248 39.0819L67.1734 93.4447C67.3824 95.8439 68.5346 98.0622 70.3773 99.6128C72.2199 101.164 74.6024 101.92 77.002 101.716V101.716Z" fill="#303C42"></path></g><path d="M73.16 92.5339L72.1133 80.5505L87.0565 79.2452L88.365 94.2248L76.4097 95.2691C75.6162 95.3368 74.8282 95.0867 74.2189 94.5739C73.6096 94.061 73.2288 93.3273 73.16 92.5339Z" fill="#8A8D92"></path><path d="M84.9607 55.2786L70.0195 56.5837L71.5896 74.5588L86.5309 73.2537L84.9607 55.2786Z" fill="#8A8D92"></path><path d="M130.198 90.5715L118.245 91.6155L116.937 76.6359L131.88 75.3306L132.927 87.314C132.996 88.1078 132.748 88.8969 132.236 89.5078C131.725 90.1186 130.991 90.5012 130.198 90.5715Z" fill="#8A8D92"></path><path d="M129.784 51.3634L114.843 52.6685L116.413 70.6436L131.354 69.3384L129.784 51.3634Z" fill="#8A8D92"></path><path d="M128.213 33.3876L129.26 45.3717L111.331 46.9378C110.938 46.9724 110.556 47.0842 110.206 47.2667C109.856 47.4492 109.546 47.6989 109.293 48.0014C109.039 48.3039 108.848 48.6533 108.73 49.0297C108.612 49.4061 108.569 49.802 108.605 50.1949L112.268 92.1368L94.3383 93.703L89.1045 33.7853L124.963 30.6531C125.756 30.5853 126.544 30.8351 127.154 31.3478C127.763 31.8605 128.144 32.5942 128.213 33.3876Z" fill="#8A8D92"></path><path d="M71.1755 35.3514L83.1308 34.3072L84.4392 49.2867L69.496 50.592L68.4492 38.6086C68.3794 37.8153 68.6272 37.0267 69.1384 36.416C69.6496 35.8052 70.3822 35.4224 71.1755 35.3514V35.3514Z" fill="#8A8D92"></path><g filter="url(#filter2_d_949_104903)"><path d="M58.4558 120.701C71.6577 120.701 82.3599 109.999 82.3599 96.7974C82.3599 83.5955 71.6577 72.8933 58.4558 72.8933C45.254 72.8933 34.5518 83.5955 34.5518 96.7974C34.5518 109.999 45.254 120.701 58.4558 120.701Z" fill="#8A8D92"></path><path d="M62.9345 99.2903H61.7843L61.3767 98.8972C62.8035 97.2375 63.6625 95.0827 63.6625 92.7386C63.6625 87.5118 59.4257 83.2751 54.1989 83.2751C48.9721 83.2751 44.7354 87.5118 44.7354 92.7386C44.7354 97.9654 48.9721 102.202 54.1989 102.202C56.543 102.202 58.6978 101.343 60.3575 99.9164L60.7506 100.324V101.474L68.0303 108.739L70.1996 106.57L62.9345 99.2903ZM54.1989 99.2903C50.5736 99.2903 47.6472 96.3639 47.6472 92.7386C47.6472 89.1134 50.5736 86.1869 54.1989 86.1869C57.8242 86.1869 60.7506 89.1134 60.7506 92.7386C60.7506 96.3639 57.8242 99.2903 54.1989 99.2903Z" fill="white"></path></g><defs><filter id="filter0_d_949_104903" x="20.0391" y="23.004" width="96.6689" height="96.7982" filterUnits="userSpaceOnUse" color-interpolation-filters="sRGB"><feFlood flood-opacity="0" result="BackgroundImageFix"></feFlood><feColorMatrix in="SourceAlpha" type="matrix" values="0 0 0 0 0 0 0 0 0 0 0 0 0 0 0 0 0 0 127 0" result="hardAlpha"></feColorMatrix><feOffset dy="3"></feOffset><feGaussianBlur stdDeviation="3"></feGaussianBlur><feColorMatrix type="matrix" values="0 0 0 0 0 0 0 0 0 0 0 0 0 0 0 0 0 0 0.161 0"></feColorMatrix><feBlend mode="normal" in2="BackgroundImageFix" result="effect1_dropShadow_949_104903"></feBlend><feBlend mode="normal" in="SourceGraphic" in2="effect1_dropShadow_949_104903" result="shape"></feBlend></filter><filter id="filter1_d_949_104903" x="56.3676" y="21.4513" width="89.1612" height="89.3319" filterUnits="userSpaceOnUse" color-interpolation-filters="sRGB"><feFlood flood-opacity="0" result="BackgroundImageFix"></feFlood><feColorMatrix in="SourceAlpha" type="matrix" values="0 0 0 0 0 0 0 0 0 0 0 0 0 0 0 0 0 0 127 0" result="hardAlpha"></feColorMatrix><feOffset dy="3.0115"></feOffset><feGaussianBlur stdDeviation="3.0115"></feGaussianBlur><feColorMatrix type="matrix" values="0 0 0 0 0 0 0 0 0 0 0 0 0 0 0 0 0 0 0.161 0"></feColorMatrix><feBlend mode="normal" in2="BackgroundImageFix" result="effect1_dropShadow_949_104903"></feBlend><feBlend mode="normal" in="SourceGraphic" in2="effect1_dropShadow_949_104903" result="shape"></feBlend></filter><filter id="filter2_d_949_104903" x="28.5518" y="69.8933" width="59.8086" height="59.8081" filterUnits="userSpaceOnUse" color-interpolation-filters="sRGB"><feFlood flood-opacity="0" result="BackgroundImageFix"></feFlood><feColorMatrix in="SourceAlpha" type="matrix" values="0 0 0 0 0 0 0 0 0 0 0 0 0 0 0 0 0 0 127 0" result="hardAlpha"></feColorMatrix><feOffset dy="3"></feOffset><feGaussianBlur stdDeviation="3"></feGaussianBlur><feColorMatrix type="matrix" values="0 0 0 0 0 0 0 0 0 0 0 0 0 0 0 0 0 0 0.161 0"></feColorMatrix><feBlend mode="normal" in2="BackgroundImageFix" result="effect1_dropShadow_949_104903"></feBlend><feBlend mode="normal" in="SourceGraphic" in2="effect1_dropShadow_949_104903" result="shape"></feBlend></filter></defs></svg>