<svg width="25" height="24" viewBox="0 0 25 24" fill="none" xmlns="http://www.w3.org/2000/svg"><path d="M16.3594 8H12.8594H9.35938V15H16.3594V8ZM15.026 13.6667H10.6927V9.33333H15.026V13.6667ZM23.3594 10.3333V9H21.026V5.66667C21.026 4.38333 19.976 3.33333 18.6927 3.33333H15.3594V1H14.026V3.33333H11.6927V1H10.3594V3.33333H7.02604C5.74271 3.33333 4.69271 4.38333 4.69271 5.66667V9H2.35938V10.3333H4.69271V13.6667H2.35938V15H4.69271V17.3333C4.69271 18.6167 5.74271 19.6667 7.02604 19.6667H10.3594V22H11.6927V19.6667H14.026V22H15.3594V19.6667H18.6927C19.976 19.6667 21.026 18.6167 21.026 17.3333V15H23.3594V13.6667H21.026V10.3333H23.3594ZM19.6927 17.3333C19.6927 17.8856 19.245 18.3333 18.6927 18.3333H7.02604C6.47376 18.3333 6.02604 17.8856 6.02604 17.3333V5.66667C6.02604 5.11438 6.47376 4.66667 7.02604 4.66667H18.6927C19.245 4.66667 19.6927 5.11438 19.6927 5.66667V17.3333Z" fill="#1E2F4F"></path><path d="M16.3594 8H12.8594H9.35938V15H16.3594V8ZM15.026 13.6667H10.6927V9.33333H15.026V13.6667Z" fill="#00AEEF"></path></svg>