<svg width="22" height="20" viewBox="0 0 22 20" fill="none" xmlns="http://www.w3.org/2000/svg">
<g clip-path="url(#clip0_40_6458)">
<path d="M18.4825 9.7295H17.1914V10.1238C17.1909 10.8951 17.0756 11.662 16.8492 12.3992C15.7661 12.4813 14.6768 12.3919 13.6215 12.1341C13.6208 11.8632 13.5472 11.5975 13.4084 11.3649C13.7996 10.8506 14.1493 10.3059 14.4542 9.73596H13.3826C13.1852 10.079 12.9697 10.4113 12.737 10.7314C12.4556 10.6121 12.144 10.5834 11.8456 10.6495C11.5471 10.7155 11.2766 10.8729 11.0715 11.0999C10.8456 10.9706 10.6196 10.8413 10.426 10.6927C9.12282 9.822 8.03451 8.66594 7.24342 7.31196C7.37128 7.15321 7.46436 6.96931 7.51663 6.7722C7.56891 6.57509 7.57919 6.36917 7.54683 6.16783C8.54068 5.8303 9.57757 5.63658 10.6261 5.59253L11.1877 4.61646C9.78556 4.58892 8.38941 4.8077 7.06266 5.26286C6.85942 5.06454 6.60428 4.92784 6.32673 4.86856H6.16535C6.08788 4.59707 6.01687 4.32558 5.95877 4.04763C5.90067 3.76967 5.86839 3.52404 5.83612 3.25901C6.80719 2.74094 7.87824 2.43816 8.97652 2.37124C10.0748 2.30432 11.1746 2.47482 12.2012 2.87117L12.8468 1.71411C11.4738 1.15797 9.98532 0.948232 8.51235 1.10335C7.03937 1.25847 5.62704 1.7737 4.39962 2.6037C3.17219 3.4337 2.1673 4.55303 1.47334 5.86322C0.779387 7.17341 0.417641 8.63429 0.419933 10.1173C0.419933 10.4082 0.419933 10.6927 0.465121 10.9771C0.680205 13.2967 1.78037 15.4439 3.53663 16.9718C5.2929 18.4998 7.56996 19.2906 9.89388 19.1799C12.2178 19.0691 14.4095 18.0652 16.0129 16.3772C17.6163 14.6891 18.5078 12.447 18.5018 10.1173C18.5018 9.98806 18.4889 9.85878 18.4825 9.7295ZM4.92589 3.82785C4.92589 3.96359 4.96462 4.1058 4.99044 4.24155C5.04854 4.52596 5.12601 4.80392 5.20347 5.08187C4.95627 5.22845 4.75731 5.44426 4.63113 5.7027C4.50494 5.96114 4.45706 6.25091 4.49337 6.53627C3.47895 7.20364 2.57317 8.0234 1.80787 8.96675C1.96222 7.94398 2.3193 6.96246 2.8581 6.07993C3.3969 5.1974 4.10653 4.43169 4.94525 3.82785H4.92589ZM4.92589 13.9828C4.67628 14.0694 4.45373 14.2201 4.28042 14.4197C4.10711 14.6193 3.98911 14.861 3.93819 15.1205H3.52504C2.48252 13.8754 1.859 12.3327 1.74331 10.7121L1.81432 10.5892C2.6227 9.33413 3.67949 8.25834 4.91943 7.42831C5.10533 7.62272 5.34026 7.7632 5.59935 7.83488C5.85845 7.90657 6.13208 7.9068 6.39129 7.83554C7.25475 9.29663 8.43506 10.5448 9.845 11.4877C10.1097 11.6623 10.3808 11.8239 10.6519 11.979C10.6302 12.2262 10.6702 12.475 10.7681 12.703C9.58675 13.6423 8.22405 14.3268 6.76571 14.7133C6.59659 14.3969 6.32064 14.151 5.98715 14.0196C5.65367 13.8881 5.28438 13.8797 4.94525 13.9958L4.92589 13.9828ZM9.44475 17.8613C8.13185 17.8616 6.84068 17.5256 5.69409 16.8852L5.87485 16.8464C6.13173 16.762 6.36129 16.6101 6.53956 16.4066C6.71784 16.2031 6.83829 15.9554 6.88837 15.6894C8.53904 15.2678 10.0801 14.4963 11.4072 13.4269C11.7225 13.6114 12.0947 13.6726 12.4523 13.5986C12.8099 13.5246 13.1275 13.3207 13.3439 13.0262C14.2547 13.2633 15.1916 13.3849 16.1327 13.3882H16.4748C15.8529 14.7272 14.8623 15.8606 13.6192 16.6553C12.3762 17.45 10.9324 17.8728 9.45766 17.8742L9.44475 17.8613Z" fill="#303C42"/>
<path d="M15.2047 0.596834L11.5106 6.92531C11.4247 7.05068 11.3753 7.19725 11.3681 7.34878C11.3608 7.50031 11.3959 7.65087 11.4695 7.7838C11.543 7.91672 11.6522 8.0268 11.7848 8.10185C11.9175 8.1769 12.0685 8.21398 12.221 8.20898H19.6157C19.7683 8.21398 19.9193 8.1769 20.0519 8.10185C20.1846 8.0268 20.2937 7.91672 20.3673 7.7838C20.4409 7.65087 20.4759 7.50031 20.4687 7.34878C20.4614 7.19725 20.4121 7.05068 20.3261 6.92531L16.632 0.596834C16.5592 0.472996 16.4549 0.370274 16.3297 0.298888C16.2045 0.227503 16.0627 0.189941 15.9184 0.189941C15.774 0.189941 15.6322 0.227503 15.507 0.298888C15.3818 0.370274 15.2776 0.472996 15.2047 0.596834Z" fill="#00AEEF"/>
</g>
<defs>
<clipPath id="clip0_40_6458">
<rect width="21" height="19" fill="white" transform="translate(0.419922 0.189941)"/>
</clipPath>
</defs>
</svg>
