<svg width="169" height="51" viewBox="0 0 169 51" fill="none" xmlns="http://www.w3.org/2000/svg">
<g clip-path="url(#clip0_40_6493)">
<path d="M162.741 0.27002H6.25926C2.80237 0.27002 0 3.06824 0 6.52002V44.02C0 47.4718 2.80237 50.27 6.25926 50.27H162.741C166.198 50.27 169 47.4718 169 44.02V6.52002C169 3.06824 166.198 0.27002 162.741 0.27002Z" fill="black"/>
<path d="M162.741 1.27002C165.645 1.27002 167.999 3.62052 167.999 6.52002V44.02C167.999 46.9195 165.645 49.27 162.741 49.27H6.25926C3.35547 49.27 1.00148 46.9195 1.00148 44.02V6.52002C1.00148 3.62052 3.35547 1.27002 6.25926 1.27002H162.741ZM162.741 0.27002H6.25926C2.80237 0.27002 0 3.06824 0 6.52002V44.02C0 47.4718 2.80237 50.27 6.25926 50.27H162.741C166.198 50.27 169 47.4718 169 44.02V6.52002C169 3.06824 166.198 0.27002 162.741 0.27002Z" fill="#A6A6A6"/>
<path d="M85.3013 27.4574C82.3662 27.4712 79.9968 29.8558 80.006 32.7865C80.0152 35.7173 82.3996 38.0869 85.3346 38.0824C88.2697 38.0778 90.6467 35.7007 90.6467 32.7699C90.6673 31.3504 90.11 29.9833 89.1022 28.9818C88.0945 27.9803 86.7228 27.4302 85.3013 27.4574ZM85.3013 35.9949C83.9784 36.0873 82.7333 35.3628 82.1617 34.168C81.59 32.9731 81.8079 31.5508 82.7112 30.5812C83.6144 29.6117 85.0194 29.292 86.2542 29.775C87.489 30.2581 88.3025 31.4457 88.3057 32.7699C88.3465 33.5983 88.0504 34.4079 87.4847 35.0151C86.919 35.6224 86.1316 35.9757 85.3013 35.9949ZM73.6466 27.4574C70.7098 27.4643 68.3341 29.8459 68.3387 32.7782C68.3433 35.7106 70.7265 38.0847 73.6632 38.0824C76.6 38.0801 78.9794 35.7023 78.9795 32.7699C79.0001 31.3504 78.4427 29.9833 77.435 28.9818C76.4273 27.9803 75.0556 27.4302 73.634 27.4574H73.6466ZM73.6466 35.9949C72.323 36.0925 71.0743 35.3716 70.4986 34.1775C69.9229 32.9835 70.1374 31.5593 71.0393 30.587C71.9413 29.6148 73.3471 29.2926 74.5834 29.7745C75.8197 30.2565 76.6349 31.4447 76.6385 32.7699C76.6792 33.5983 76.3832 34.4079 75.8174 35.0151C75.2517 35.6224 74.4644 35.9757 73.634 35.9949H73.6466ZM59.7635 29.0949V31.3449H65.1715C65.0867 32.4047 64.6456 33.4047 63.9197 34.1824C62.8256 35.2952 61.3115 35.8945 59.751 35.8324C56.4324 35.8324 53.7421 33.1461 53.7421 29.8324C53.7421 26.5187 56.4324 23.8324 59.751 23.8324C61.2755 23.8076 62.7476 24.3875 63.8446 25.4449L65.4344 23.8574C63.9383 22.3448 61.8926 21.5015 59.7635 21.5199C56.7327 21.4022 53.8803 22.9495 52.3298 25.5525C50.7794 28.1555 50.7794 31.3969 52.3298 33.9999C53.8803 36.6028 56.7327 38.1502 59.7635 38.0324C61.9314 38.1302 64.0358 37.287 65.5346 35.7199C66.8461 34.2811 67.5463 32.3896 67.4874 30.4449C67.4915 29.9712 67.4496 29.4981 67.3623 29.0324L59.7635 29.0949ZM116.485 30.8449C115.817 28.8814 114.004 27.5337 111.928 27.4574C110.544 27.4547 109.221 28.0242 108.272 29.0306C107.323 30.037 106.834 31.3906 106.921 32.7699C106.89 34.1815 107.436 35.545 108.432 36.5469C109.428 37.5488 110.79 38.1031 112.204 38.0824C113.982 38.092 115.647 37.2092 116.635 35.7324L114.82 34.4824C114.269 35.3999 113.275 35.9601 112.204 35.9574C111.094 35.9997 110.071 35.3602 109.625 34.3449L116.748 31.4074L116.485 30.8449ZM109.224 32.6199C109.173 31.8389 109.439 31.0701 109.961 30.4869C110.484 29.9037 111.22 29.5552 112.003 29.5199C112.829 29.4656 113.607 29.9083 113.981 30.6449L109.224 32.6199ZM103.441 37.7699H105.782V22.1449H103.441V37.7699ZM99.61 28.6449H99.5223C98.8087 27.8483 97.7886 27.3935 96.7182 27.3949C93.8767 27.5325 91.6436 29.873 91.6436 32.7137C91.6436 35.5543 93.8767 37.8948 96.7182 38.0324C97.7921 38.0505 98.8188 37.5928 99.5223 36.7824H99.5975V37.5449C99.5975 39.5824 98.5083 40.6699 96.7557 40.6699C95.5619 40.642 94.5033 39.8962 94.0768 38.7824L92.0363 39.6324C92.822 41.5409 94.6892 42.7823 96.7557 42.7699C99.4973 42.7699 101.763 41.1574 101.763 37.2324V27.7699H99.61V28.6449ZM96.931 35.9949C95.2571 35.8476 93.9734 34.4478 93.9734 32.7699C93.9734 31.0921 95.2571 29.6922 96.931 29.5449C97.7399 29.5864 98.4977 29.9521 99.0327 30.5593C99.5677 31.1665 99.8345 31.9636 99.7727 32.7699C99.8417 33.58 99.5757 34.383 99.0366 34.9922C98.4974 35.6014 97.7321 35.9637 96.9185 35.9949H96.931ZM127.451 22.1449H121.855V37.7699H124.196V31.8449H127.464C129.282 31.9754 131.021 31.0806 131.971 29.5261C132.92 27.9717 132.92 26.0181 131.971 24.4637C131.021 22.9093 129.282 22.0145 127.464 22.1449H127.451ZM127.451 29.6449H124.184V24.3199H127.501C128.984 24.3199 130.186 25.5204 130.186 27.0012C130.186 28.482 128.984 29.6824 127.501 29.6824L127.451 29.6449ZM141.885 27.3949C140.143 27.291 138.506 28.2288 137.716 29.7824L139.794 30.6449C140.213 29.8745 141.048 29.4235 141.923 29.4949C142.523 29.4249 143.126 29.5986 143.597 29.9771C144.068 30.3555 144.367 30.9069 144.426 31.5074V31.6699C143.674 31.2724 142.836 31.0663 141.985 31.0699C139.744 31.0699 137.478 32.3199 137.478 34.5824C137.523 35.5571 137.961 36.4722 138.692 37.1197C139.423 37.7671 140.385 38.0918 141.359 38.0199C142.56 38.106 143.712 37.5308 144.364 36.5199H144.439V37.7699H146.692V31.7574C146.692 29.0199 144.614 27.4324 141.948 27.4324L141.885 27.3949ZM141.597 35.9574C140.833 35.9574 139.769 35.5699 139.769 34.6324C139.769 33.3824 141.096 32.9699 142.273 32.9699C143.017 32.9516 143.752 33.1329 144.401 33.4949C144.239 34.8942 143.07 35.9606 141.66 35.9949L141.597 35.9574ZM154.904 27.7699L152.225 34.5449H152.15L149.371 27.7699H146.867L151.036 37.2449L148.658 42.5074H151.099L157.508 27.7699H154.904ZM133.861 37.7699H136.202V22.1449H133.861V37.7699Z" fill="white"/>
<path d="M59.3624 13.0704C59.4054 13.9969 59.066 14.9005 58.4235 15.5704C57.7055 16.3151 56.7041 16.7197 55.6694 16.6829C54.0825 16.6705 52.6577 15.7094 52.0537 14.244C51.4497 12.7786 51.7843 11.0945 52.9028 9.97035C53.6296 9.2295 54.6311 8.82224 55.6694 8.84535C56.1987 8.84359 56.7227 8.94993 57.2092 9.15785C57.6622 9.34029 58.0654 9.62729 58.3859 9.99535L57.7225 10.6579C57.2159 10.0562 56.4554 9.72746 55.6694 9.77035C54.8793 9.76648 54.1217 10.0842 53.5714 10.6503C53.021 11.2164 52.7254 11.9819 52.7526 12.7704C52.7358 13.9619 53.4386 15.0464 54.5339 15.5195C55.6292 15.9925 56.902 15.7611 57.76 14.9329C58.1452 14.5161 58.3674 13.9748 58.3859 13.4079H55.6694V12.5079H59.3123C59.3457 12.6935 59.3625 12.8818 59.3624 13.0704ZM65.0959 9.94535H61.7159V12.3204H64.7954V13.2204H61.7159V15.5954H65.0959V16.5204H60.7144V9.02035H65.0959V9.94535ZM69.2019 16.5204H68.238V9.94535H66.1349V9.02035H71.3551V9.94535H69.2019V16.5204ZM75.0356 16.5204V9.02035H75.9995V16.5204H75.0356ZM80.2808 16.5204H79.3169V9.94535H77.2138V9.02035H82.3714V9.94535H80.2808V16.5204ZM92.1484 15.5454C90.6249 17.0582 88.1637 17.0582 86.6402 15.5454C85.1634 13.9844 85.1634 11.5438 86.6402 9.98285C87.3688 9.25003 88.3602 8.83789 89.3943 8.83789C90.4284 8.83789 91.4198 9.25003 92.1484 9.98285C93.6315 11.5413 93.6315 13.9869 92.1484 15.5454ZM87.3538 14.9204C88.4821 16.0423 90.3065 16.0423 91.4348 14.9204C92.543 13.7006 92.543 11.8402 91.4348 10.6204C90.3065 9.49839 88.4821 9.49839 87.3538 10.6204C86.2457 11.8402 86.2457 13.7006 87.3538 14.9204ZM94.6145 16.5204V9.02035H95.7913L99.4467 14.8579V9.02035H100.411V16.5204H99.4091L95.591 10.4079V16.5204H94.6145Z" fill="white" stroke="white" stroke-width="0.2"/>
<path d="M13.0696 9.69492C12.6616 10.1838 12.4556 10.8096 12.4937 11.4449V39.0949C12.4556 39.7302 12.6616 40.356 13.0696 40.8449L13.1572 40.9324L28.6677 25.4574V25.0949L13.1572 9.60742L13.0696 9.69492Z" fill="url(#paint0_linear_40_6493)"/>
<path d="M33.8006 30.6199L28.668 25.4574V25.0949L33.8006 19.9199L33.9132 19.9824L40.0598 23.4699C41.8124 24.4574 41.8124 26.0824 40.0598 27.0824L33.9383 30.5574L33.8006 30.6199Z" fill="url(#paint1_linear_40_6493)"/>
<path d="M33.9512 30.545L28.6684 25.27L13.0703 40.845C13.8073 41.4919 14.9011 41.5234 15.6742 40.92L33.9637 30.545" fill="url(#paint2_linear_40_6493)"/>
<path d="M33.951 19.9947L15.6615 9.61972C14.8884 9.01631 13.7946 9.04782 13.0576 9.69472L28.6682 25.2697L33.951 19.9947Z" fill="url(#paint3_linear_40_6493)"/>
<path opacity="0.2" d="M33.801 30.4326L15.6616 40.7451C14.9193 41.2992 13.9002 41.2992 13.1579 40.7451L13.0703 40.8326L13.1579 40.9201C13.8988 41.4784 14.9207 41.4784 15.6616 40.9201L33.9512 30.5451L33.801 30.4326Z" fill="black"/>
<path opacity="0.12" d="M13.0696 40.67C12.6616 40.1811 12.4556 39.5553 12.4937 38.92V39.1075C12.4556 39.7428 12.6616 40.3686 13.0696 40.8575L13.1572 40.77L13.0696 40.67ZM40.0595 26.895L33.8003 30.4325L33.9129 30.545L40.0595 27.07C40.7694 26.737 41.2469 26.0505 41.3114 25.27C41.1687 25.976 40.7064 26.5762 40.0595 26.895Z" fill="black"/>
<path opacity="0.25" d="M15.6611 9.79555L40.0597 23.6456C40.7066 23.9644 41.1689 24.5645 41.3116 25.2706C41.2471 24.4901 40.7696 23.8036 40.0597 23.4706L15.6611 9.62055C13.9086 8.63305 12.4814 9.45805 12.4814 11.4581V11.6456C12.519 9.63305 13.9211 8.80805 15.6611 9.79555Z" fill="white"/>
</g>
<defs>
<linearGradient id="paint0_linear_40_6493" x1="27.2906" y1="11.1574" x2="2.45951" y2="17.7711" gradientUnits="userSpaceOnUse">
<stop stop-color="#00A0FF"/>
<stop offset="0.01" stop-color="#00A1FF"/>
<stop offset="0.26" stop-color="#00BEFF"/>
<stop offset="0.51" stop-color="#00D2FF"/>
<stop offset="0.76" stop-color="#00DFFF"/>
<stop offset="1" stop-color="#00E3FF"/>
</linearGradient>
<linearGradient id="paint1_linear_40_6493" x1="42.3507" y1="25.2699" x2="12.0684" y2="25.2699" gradientUnits="userSpaceOnUse">
<stop stop-color="#FFE000"/>
<stop offset="0.41" stop-color="#FFBD00"/>
<stop offset="0.78" stop-color="#FFA500"/>
<stop offset="1" stop-color="#FF9C00"/>
</linearGradient>
<linearGradient id="paint2_linear_40_6493" x1="31.0845" y1="28.145" x2="11.178" y2="61.6791" gradientUnits="userSpaceOnUse">
<stop stop-color="#FF3A44"/>
<stop offset="1" stop-color="#C31162"/>
</linearGradient>
<linearGradient id="paint3_linear_40_6493" x1="9.13934" y1="0.494716" x2="18.0246" y2="15.4694" gradientUnits="userSpaceOnUse">
<stop stop-color="#32A071"/>
<stop offset="0.07" stop-color="#2DA771"/>
<stop offset="0.48" stop-color="#15CF74"/>
<stop offset="0.8" stop-color="#06E775"/>
<stop offset="1" stop-color="#00F076"/>
</linearGradient>
<clipPath id="clip0_40_6493">
<rect width="169" height="50" fill="white" transform="translate(0 0.27002)"/>
</clipPath>
</defs>
</svg>
