<svg width="158" height="51" viewBox="0 0 158 51" fill="none" xmlns="http://www.w3.org/2000/svg">
<g clip-path="url(#clip0_40_6484)">
<path d="M144.622 0.270182H12.5204C12.0388 0.270182 11.5631 0.270182 11.0828 0.272682C10.6808 0.275182 10.282 0.282445 9.87613 0.288557C8.99437 0.298434 8.11469 0.372277 7.24473 0.509444C6.37598 0.649597 5.53446 0.913825 4.7486 1.29319C3.96371 1.67577 3.24654 2.17289 2.62309 2.76651C1.99637 3.35847 1.47395 4.04269 1.07592 4.79287C0.676793 5.54155 0.400036 6.34384 0.255209 7.17201C0.109005 7.99914 0.0303314 8.83581 0.0198941 9.6745C0.00770813 10.0577 0.00642126 10.4423 0 10.8256V39.7183C0.00642126 40.1064 0.00770813 40.4824 0.0198941 40.8707C0.0303346 41.7093 0.109008 42.5459 0.255209 43.373C0.399636 44.2017 0.676409 45.0044 1.07592 45.7534C1.47377 46.5011 1.99626 47.1826 2.62309 47.7713C3.24417 48.3675 3.96181 48.865 4.7486 49.2446C5.53445 49.625 6.37589 49.8908 7.24473 50.0331C8.11484 50.1692 8.99443 50.2431 9.87613 50.2541C10.282 50.2626 10.6808 50.2675 11.0828 50.2675C11.5631 50.27 12.0389 50.27 12.5204 50.27H144.622C145.094 50.27 145.574 50.27 146.046 50.2675C146.446 50.2675 146.856 50.2626 147.256 50.2541C148.136 50.2437 149.014 50.1698 149.883 50.0331C150.754 49.8898 151.599 49.6241 152.388 49.2446C153.175 48.8648 153.891 48.3673 154.512 47.7713C155.137 47.1803 155.661 46.4993 156.064 45.7534C156.46 45.0039 156.734 44.2012 156.877 43.373C157.023 42.5458 157.105 41.7094 157.12 40.8707C157.125 40.4824 157.125 40.1064 157.125 39.7183C157.136 39.2642 157.136 38.8125 157.136 38.351V12.1903C157.136 11.7325 157.136 11.2784 157.125 10.8256C157.125 10.4423 157.125 10.0577 157.12 9.67445C157.105 8.83568 157.023 7.9992 156.877 7.17196C156.734 6.34426 156.46 5.54204 156.064 4.79282C155.253 3.28917 153.968 2.06521 152.388 1.29308C151.599 0.914639 150.754 0.650482 149.883 0.509332C149.015 0.371561 148.137 0.297692 147.256 0.288382C146.856 0.282282 146.446 0.274957 146.046 0.27252C145.574 0.27002 145.094 0.270182 144.622 0.270182Z" fill="#A6A6A6"/>
<path d="M11.0893 49.1761C10.6893 49.1761 10.2988 49.1713 9.90189 49.1628C9.07957 49.1526 8.25918 49.0844 7.44744 48.9589C6.69054 48.8348 5.9573 48.604 5.27191 48.274C4.59281 47.9468 3.97342 47.5177 3.43745 47.0033C2.89374 46.4949 2.44107 45.9052 2.09738 45.2577C1.74991 44.6059 1.50944 43.9073 1.38435 43.1862C1.24926 42.4113 1.17617 41.6278 1.16571 40.8424C1.15738 40.5788 1.14648 39.7011 1.14648 39.7011V10.8254C1.14648 10.8254 1.15809 9.96116 1.16577 9.70725C1.17579 8.9231 1.24845 8.14082 1.38314 7.36717C1.50846 6.64407 1.74912 5.94345 2.09678 5.28955C2.4392 4.64244 2.88936 4.05234 3.4298 3.54212C3.96963 3.02705 4.59101 2.59578 5.27127 2.26403C5.95508 1.93514 6.68693 1.70594 7.44231 1.58411C8.25672 1.45732 9.07995 1.38877 9.90512 1.37904L11.09 1.36377H146.04L147.239 1.37965C148.056 1.3889 148.872 1.45684 149.679 1.58289C150.442 1.70624 151.181 1.93704 151.873 2.2677C153.236 2.93625 154.345 3.99397 155.044 5.2926C155.386 5.94198 155.623 6.63689 155.747 7.35374C155.883 8.13374 155.96 8.92217 155.975 9.71275C155.979 10.0667 155.979 10.447 155.979 10.8254C155.989 11.2942 155.989 11.7403 155.989 12.1902V38.3509C155.989 38.8051 155.989 39.2482 155.979 39.6949C155.979 40.1014 155.979 40.4738 155.974 40.857C155.959 41.6335 155.884 42.4079 155.75 43.1739C155.627 43.9002 155.388 44.6043 155.04 45.2614C154.694 45.9019 154.244 46.4865 153.707 46.9935C153.17 47.5108 152.55 47.9423 151.869 48.2717C151.18 48.6041 150.441 48.8358 149.679 48.9589C148.867 49.0851 148.047 49.1532 147.224 49.1628C146.84 49.1713 146.437 49.1761 146.046 49.1761L144.623 49.1786L11.0893 49.1761Z" fill="white"/>
<path d="M55.549 34.1942H49.3334L47.8407 38.3897H45.208L51.0953 22.8672H53.8306L59.7179 38.3897H57.0404L55.549 34.1942ZM49.9771 32.2581H54.904L52.4752 25.4491H52.4072L49.9771 32.2581ZM72.4326 32.7318C72.4326 36.2486 70.4552 38.5081 67.4711 38.5081C65.9287 38.5849 64.4758 37.8159 63.7305 36.5281H63.674V42.1336H61.2337V27.0726H63.5958V28.9549H63.6407C64.4191 27.6752 65.8736 26.9065 67.4262 26.9542C70.4436 26.9542 72.4326 29.2247 72.4326 32.7318ZM69.9243 32.7318C69.9243 30.4405 68.6804 28.9342 66.7825 28.9342C64.9179 28.9342 63.6638 30.4722 63.6638 32.7318C63.6638 35.012 64.9179 36.5391 66.7825 36.5391C68.6804 36.5391 69.9243 35.0438 69.9243 32.7318ZM85.5178 32.7318C85.5178 36.2486 83.5404 38.5081 80.5563 38.5081C79.0139 38.5849 77.561 37.8159 76.8157 36.5281H76.7592V42.1336H74.3189V27.0726H76.681V28.9549H76.7259C77.5043 27.6752 78.9588 26.9065 80.5114 26.9542C83.5289 26.9542 85.5178 29.2247 85.5178 32.7318ZM83.0095 32.7318C83.0095 30.4405 81.7656 28.9342 79.8677 28.9342C78.0032 28.9342 76.749 30.4722 76.749 32.7318C76.749 35.012 78.0032 36.5391 79.8677 36.5391C81.7656 36.5391 83.0095 35.0438 83.0095 32.7318ZM94.1661 34.0648C94.3469 35.6041 95.9178 36.6147 98.0645 36.6147C100.121 36.6147 101.601 35.604 101.601 34.2161C101.601 33.0112 100.709 32.2898 98.5954 31.7954L96.482 31.3108C93.4877 30.6223 92.0976 29.2893 92.0976 27.1262C92.0976 24.448 94.5495 22.6084 98.0311 22.6084C101.477 22.6084 103.839 24.448 103.918 27.1262H101.455C101.308 25.5772 99.9623 24.6421 97.9965 24.6421C96.0306 24.6421 94.6854 25.5882 94.6854 26.9651C94.6854 28.0625 95.5446 28.7083 97.6464 29.2026L99.443 29.6225C102.789 30.3757 104.179 31.655 104.179 33.9255C104.179 36.8295 101.749 38.6484 97.8836 38.6484C94.2673 38.6484 91.8257 36.8723 91.668 34.0646L94.1661 34.0648ZM109.445 24.3944V27.0726H111.706V28.9122H109.445V35.1512C109.445 36.1204 109.898 36.5721 110.892 36.5721C111.16 36.5676 111.428 36.5497 111.695 36.5183V38.3469C111.248 38.4264 110.794 38.4624 110.339 38.4544C107.932 38.4544 106.994 37.5938 106.994 35.3989V28.9122H105.265V27.0726H106.994V24.3944H109.445ZM113.016 32.7318C113.016 29.171 115.219 26.9334 118.654 26.9334C122.101 26.9334 124.294 29.1709 124.294 32.7318C124.294 36.3023 122.113 38.5301 118.654 38.5301C115.197 38.5301 113.016 36.3023 113.016 32.7318ZM121.807 32.7318C121.807 30.2891 120.632 28.8475 118.654 28.8475C116.677 28.8475 115.502 30.3001 115.502 32.7318C115.502 35.1841 116.677 36.6148 118.654 36.6148C120.632 36.6148 121.807 35.1841 121.807 32.7318ZM126.306 27.0726H128.633V28.9988H128.69C129.014 27.7588 130.208 26.9054 131.55 26.9542C131.831 26.9532 132.111 26.9823 132.386 27.0408V29.2137C132.031 29.1104 131.66 29.063 131.289 29.0733C130.572 29.0456 129.877 29.3178 129.389 29.8184C128.9 30.3189 128.665 30.9979 128.746 31.677V38.3897H126.306V27.0726ZM143.637 35.0657C143.309 37.1202 141.207 38.5301 138.518 38.5301C135.059 38.5301 132.913 36.3243 132.913 32.7855C132.913 29.2357 135.071 26.9334 138.415 26.9334C141.705 26.9334 143.773 29.0843 143.773 32.5157V33.3116H135.376V33.452C135.298 34.2945 135.603 35.1285 136.215 35.7418C136.827 36.3551 137.686 36.6886 138.574 36.6575C139.759 36.7631 140.875 36.1158 141.32 35.0657H143.637ZM135.388 31.6881L141.331 31.688C141.376 30.931 141.086 30.1906 140.533 29.6454C139.979 29.1002 139.212 28.7995 138.415 28.8157C137.613 28.8112 136.841 29.112 136.273 29.6514C135.704 30.1908 135.386 30.924 135.388 31.6881Z" fill="black"/>
<path d="M49.671 11.1839C50.707 11.1131 51.7217 11.4883 52.4359 12.2062C53.1501 12.9241 53.4884 13.9091 53.3578 14.8899C53.3578 17.2727 52.0049 18.6424 49.671 18.6424H46.8408V11.1839H49.671ZM48.0578 17.5876H49.5351C50.2754 17.6297 50.9963 17.3521 51.4976 16.8317C51.9989 16.3113 52.2271 15.6036 52.119 14.9051C52.2193 14.2095 51.9877 13.5077 51.4877 12.9915C50.9877 12.4754 50.2715 12.199 49.5351 12.2379H48.0578V17.5876ZM54.7325 15.8255C54.6311 14.8167 55.1393 13.8403 56.044 13.3059C56.9486 12.7715 58.0933 12.7715 58.998 13.3059C59.9027 13.8403 60.4109 14.8167 60.3095 15.8255C60.4128 16.8355 59.905 17.8138 58.9996 18.3493C58.0941 18.8849 56.9478 18.8849 56.0424 18.3493C55.1369 17.8138 54.6292 16.8355 54.7325 15.8255ZM59.1092 15.8255C59.1092 14.6055 58.5334 13.892 57.5229 13.892C56.5085 13.892 55.9379 14.6055 55.9379 15.8256C55.9379 17.0554 56.5086 17.7634 57.5229 17.7634C58.5334 17.7634 59.1092 17.0505 59.1092 15.8255ZM67.7228 18.6423H66.5123L65.2902 14.4968H65.1979L63.9809 18.6423H62.7819L61.152 13.0137H62.3356L63.3948 17.3086H63.4821L64.6977 13.0137H65.8172L67.0329 17.3086H67.1252L68.1793 13.0137H69.3463L67.7228 18.6423ZM70.7171 13.0137H71.8405V13.9078H71.9277C72.2309 13.2495 72.9395 12.8468 73.6922 12.905C74.275 12.8633 74.8461 13.0761 75.2443 13.4834C75.6424 13.8906 75.8244 14.4482 75.7389 14.9985V18.6422H74.5719V15.2774C74.5719 14.3729 74.159 13.9231 73.296 13.9231C72.9007 13.9055 72.517 14.0532 72.2457 14.3274C71.9743 14.6016 71.8422 14.9749 71.8841 15.3495V18.6423H70.7171V13.0137ZM77.5983 10.8164H78.7652V18.6423H77.5983V10.8164ZM80.3874 15.8255C80.2861 14.8166 80.7944 13.8402 81.6991 13.3058C82.6039 12.7714 83.7486 12.7714 84.6534 13.3058C85.5581 13.8402 86.0664 14.8166 85.9651 15.8255C86.0683 16.8356 85.5604 17.8138 84.6549 18.3493C83.7494 18.8848 82.6031 18.8848 81.6976 18.3493C80.7921 17.8138 80.2842 16.8356 80.3874 15.8255ZM84.7641 15.8255C84.7641 14.6055 84.1883 13.892 83.1778 13.892C82.1635 13.892 81.5929 14.6055 81.5929 15.8256C81.5929 17.0554 82.1635 17.7634 83.1778 17.7634C84.1883 17.7634 84.7641 17.0505 84.7641 15.8255ZM87.1936 17.0505C87.1936 16.0373 87.9861 15.4532 89.3928 15.3702L90.9945 15.2823V14.7965C90.9945 14.202 90.5816 13.8663 89.784 13.8663C89.1325 13.8663 88.6811 14.094 88.5516 14.4919H87.4218C87.5411 13.5251 88.4965 12.905 89.8378 12.905C91.3202 12.905 92.1563 13.6075 92.1563 14.7965V18.6423H91.033V17.8513H90.9406C90.5591 18.429 89.8806 18.7666 89.1646 18.735C88.6626 18.7847 88.162 18.63 87.7864 18.309C87.4109 17.9881 87.1956 17.5309 87.1936 17.0505ZM90.9945 16.5696V16.099L89.5506 16.1869C88.7363 16.2387 88.3669 16.5024 88.3669 16.9986C88.3669 17.5052 88.8286 17.8 89.4634 17.8C89.8392 17.8362 90.2144 17.7257 90.503 17.4938C90.7916 17.2618 90.969 16.9283 90.9945 16.5696ZM93.69 15.8255C93.69 14.047 94.6505 12.9203 96.1445 12.9203C96.8988 12.8872 97.6054 13.272 97.9577 13.9078H98.0449V10.8164H99.2119V18.6423H98.0937V17.753H98.0013C97.6223 18.3835 96.9071 18.7618 96.1445 18.735C94.6403 18.7351 93.69 17.6084 93.69 15.8255ZM94.8955 15.8255C94.8955 17.0194 95.4867 17.7378 96.4754 17.7378C97.4589 17.7378 98.0668 17.009 98.0668 15.8304C98.0668 14.6573 97.4525 13.9182 96.4754 13.9182C95.493 13.9182 94.8955 14.6415 94.8955 15.8255ZM104.04 15.8255C103.939 14.8167 104.447 13.8403 105.351 13.3059C106.256 12.7715 107.401 12.7715 108.305 13.3059C109.21 13.8403 109.718 14.8167 109.617 15.8255C109.72 16.8355 109.213 17.8138 108.307 18.3493C107.402 18.8849 106.255 18.8849 105.35 18.3493C104.444 17.8138 103.937 16.8355 104.04 15.8255ZM108.417 15.8255C108.417 14.6055 107.841 13.892 106.83 13.892C105.816 13.892 105.245 14.6055 105.245 15.8256C105.245 17.0554 105.816 17.7634 106.83 17.7634C107.841 17.7634 108.417 17.0505 108.417 15.8255ZM111.183 13.0137H112.306V13.9078H112.393C112.697 13.2495 113.405 12.8468 114.158 12.905C114.741 12.8633 115.312 13.0761 115.71 13.4834C116.108 13.8906 116.29 14.4482 116.204 14.9985V18.6422H115.038V15.2774C115.038 14.3729 114.625 13.9231 113.762 13.9231C113.366 13.9055 112.983 14.0532 112.711 14.3274C112.44 14.6016 112.308 14.9749 112.35 15.3495V18.6423H111.183V13.0137ZM122.798 11.6123V13.0393H124.079V13.975H122.798V16.8692C122.798 17.4588 123.054 17.717 123.634 17.717C123.783 17.7166 123.932 17.708 124.079 17.6914V18.6167C123.87 18.6523 123.658 18.6713 123.445 18.6734C122.147 18.6734 121.63 18.2388 121.63 17.1536V13.9749H120.691V13.0392H121.63V11.6123H122.798ZM125.673 10.8164H126.83V13.9182H126.922C127.24 13.2541 127.961 12.8509 128.725 12.9099C129.305 12.8799 129.868 13.0974 130.262 13.5032C130.656 13.909 130.839 14.4608 130.762 15.0083V18.6423H129.594V15.2823C129.594 14.3833 129.154 13.9279 128.329 13.9279C127.923 13.8962 127.523 14.0367 127.236 14.3119C126.949 14.587 126.804 14.9687 126.84 15.3549V18.6423H125.673V10.8164ZM137.566 17.1225C137.239 18.1842 136.16 18.8702 135.004 18.7509C134.215 18.7707 133.458 18.4596 132.932 17.9002C132.406 17.3407 132.165 16.5894 132.272 15.8457C132.168 15.0999 132.408 14.3474 132.931 13.7832C133.454 13.219 134.208 12.8986 134.999 12.905C136.644 12.905 137.637 13.975 137.637 15.7425V16.1301H133.461V16.1924C133.424 16.61 133.574 17.0232 133.874 17.3302C134.174 17.6372 134.596 17.8095 135.036 17.8049C135.607 17.8701 136.163 17.6005 136.443 17.1225H137.566ZM133.461 15.3086H136.448C136.478 14.9266 136.336 14.5504 136.059 14.2727C135.782 13.995 135.395 13.8417 134.992 13.8504C134.585 13.8456 134.192 13.9976 133.904 14.2722C133.616 14.5467 133.456 14.9204 133.461 15.3086Z" fill="black"/>
<path d="M32.5257 25.6459C32.5544 23.5253 33.7223 21.5665 35.6202 20.4558C34.4174 18.8207 32.4751 17.8211 30.3792 17.7587C28.1741 17.5384 26.0364 19.0147 24.9127 19.0147C23.7673 19.0147 22.0373 17.7806 20.1743 17.8171C17.7231 17.8925 15.4933 19.1869 14.3007 21.2269C11.7611 25.4124 13.6554 31.5637 16.0882 34.947C17.3053 36.6036 18.7278 38.4542 20.5891 38.3886C22.4105 38.3167 23.0908 37.283 25.2894 37.283C27.4675 37.283 28.1058 38.3886 30.0049 38.3468C31.9593 38.3166 33.1907 36.6828 34.3651 35.0104C35.2397 33.83 35.9126 32.5253 36.359 31.1448C34.0378 30.2102 32.5284 28.045 32.5257 25.6459ZM28.9387 15.5337C30.0043 14.3159 30.5293 12.7507 30.4022 11.1704C28.7741 11.3332 27.2702 12.0739 26.1902 13.2449C25.1237 14.4003 24.5834 15.9118 24.6883 17.4466C26.3382 17.4628 27.9048 16.7577 28.9387 15.5337Z" fill="black"/>
</g>
<defs>
<clipPath id="clip0_40_6484">
<rect width="158" height="50" fill="white" transform="translate(0 0.27002)"/>
</clipPath>
</defs>
</svg>

