<svg width="19" height="18" viewBox="0 0 19 18" fill="none" xmlns="http://www.w3.org/2000/svg">
<g clip-path="url(#clip0_40_6466)">
<path d="M9.21075 17.1899C8.04617 17.1899 6.94551 16.9662 5.90875 16.5188C4.87199 16.0715 3.9666 15.4643 3.19258 14.6974C2.41856 13.9305 1.80787 13.0287 1.36051 11.9919C0.913137 10.9551 0.689453 9.85452 0.689453 8.68994C0.689453 6.446 1.44572 4.5145 2.95825 2.89545C4.47078 1.27641 6.34901 0.38167 8.59296 0.211245V2.38418C6.95971 2.5404 5.5963 3.21855 4.50273 4.41864C3.40917 5.61872 2.86238 7.04249 2.86238 8.68994C2.86238 10.451 3.48018 11.9457 4.71577 13.1742C5.95135 14.4027 7.44968 15.017 9.21075 15.017C10.2333 15.017 11.1991 14.7862 12.108 14.3246C13.017 13.863 13.791 13.2133 14.4301 12.3754L16.3048 13.4618C15.4811 14.6406 14.4479 15.5567 13.2052 16.21C11.9625 16.8633 10.631 17.1899 9.21075 17.1899ZM16.9226 12.3115L15.0479 11.2676C15.2183 10.8273 15.3461 10.3906 15.4314 9.95748C15.5166 9.52432 15.5592 9.0947 15.5592 8.66864C15.5592 7.02118 15.0159 5.59387 13.9295 4.38668C12.843 3.1795 11.4903 2.50489 9.87115 2.36287V0.189941C12.1009 0.346165 13.9685 1.23025 15.474 2.8422C16.9794 4.45414 17.7321 6.36788 17.7321 8.58342C17.7321 9.22252 17.6646 9.85097 17.5297 10.4687C17.3948 11.0865 17.1924 11.7008 16.9226 12.3115Z" fill="#303C42"/>
<path d="M15.0478 11.2676L16.9225 12.3115C17.1923 11.7008 17.3947 11.0865 17.5296 10.4687C17.6645 9.85097 17.732 9.22252 17.732 8.58342C17.732 6.36788 16.9793 4.45414 15.4739 2.8422C13.9684 1.23025 12.1008 0.346165 9.87109 0.189941V2.36287C11.4901 2.50489 12.8429 3.1795 13.9294 4.38668C15.0158 5.59387 15.5591 7.02118 15.5591 8.66864C15.5591 9.0947 15.5165 9.52432 15.4313 9.95748C15.346 10.3906 15.2182 10.8273 15.0478 11.2676Z" fill="#00AEEF"/>
</g>
<defs>
<clipPath id="clip0_40_6466">
<rect width="18" height="17" fill="white" transform="translate(0.689453 0.189941)"/>
</clipPath>
</defs>
</svg>
