<?xml version="1.0" encoding="UTF-8"?>
<svg version="1.1" xmlns="http://www.w3.org/2000/svg" viewBox="-20 -10 450 292">
 <title xml:lang="en">Union Flag</title>
 <metadata>
  <rdf:RDF xmlns:rdf="http://www.w3.org/1999/02/22-rdf-syntax-ns#" xmlns:dc="http://purl.org/dc/terms/" xmlns:voc="http://www.w3.org/1999/xhtml/vocab#" xmlns:cc="http://web.resource.org/cc/">
   <cc:Work rdf:about="">
    <dc:title xml:lang="en">Union Flag</dc:title>
    <dc:format>image/svg+xml</dc:format>
    <dc:type rdf:resource="http://purl.org/dc/dcmitype/StillImage" />
    <dc:creator>
     <dc:Agent rdf:about="http://purl.org/net/2008,frankbruder/id">
      <dc:title>Frank Bruder</dc:title>
     </dc:Agent>
    </dc:creator>
    <voc:license rdf:resource="http://creativecommons.org/publicdomain/zero/1.0/"/>
    <voc:license rdf:resource="http://web.resource.org/cc/PublicDomain" />
   </cc:Work>
  </rdf:RDF>
 </metadata>
 <path fill="#c0c0c0" d="M-10 21q110 -27 220 0t220 0v230q-110 27 -220 0t-220 0z"/>
<g transform="translate(0 17) scale(7)">
 <path fill="#00247D" d="M0 2q15 -4 30 0t30 0v30q-15 4 -30 0t-30 0z"/>
 <path fill="#fff" d="M0 2q3.3541018962860107 -0.8944271723429362 6.7082037925720215 -1.3888543613731823q11.64589786529541 4.106230501509037 23.29179573059082 13.03475209951202q11.64589786529541 -2.717376069845435 23.29179573059082 -10.257043236184808q3.3541018962860107 -0.4944271321640983 6.7082037925720215 -1.388854247640885v3.3541018962860107q-11.64589786529541 8.928521499279482 -23.29179573059082 13.034751902065018q11.64589786529541 7.539667462509872 23.29179573059082 10.257043828525802v3.3541018962860107q-3.3541018962860107 0.8944271154767858 -6.7082037925720215 1.3888542476408858q-11.64589786529541 -4.106230698956037 -23.29179573059082 -13.034752494406014q-11.64589786529541 2.717376267292428 -23.29179573059082 10.257043631078801q-3.3541018962860107 0.4944271890302452 -6.7082037925720215 1.388854361373184v-3.3541018962860107q11.64589786529541 -8.92852169672648 23.29179573059082 -13.034752296959017q-11.64589786529541 -7.539667265062874 -23.29179573059082 -10.257043433631804z"/>
 <path fill="#cf142b" d="M0 2q15 3.5 30 15q-2.2360680103302 -0.5962848027547207 -4.4721360206604 -1.014791822511322q-12.763932228088379 -8.770889533401052 -25.527864456176758 -11.749140278420478zM30 14.763932228088379q12.763932228088379 -2.9782508532206213 25.527864456176758 -11.749140494822868q2.2360680103302 -0.4185070387119838 4.4721360206604 -1.0147918604220885q-15 11.500000127156575 -30 15.00000025431315zM60 32q-15 -3.5 -30 -15q2.2360680103302 0.5962848027547203 4.4721360206604 1.0147918225113237q12.763932228088379 8.77088953340105 25.527864456176758 11.74914027842048zM30 19.236068725585938q-12.763932228088379 2.9782508532206213 -25.527864456176758 11.749140494822868q-2.2360680103302 0.41850703871198647 -4.4721360206604 1.0147918604220898q15 -11.500000127156577 30 -15.000000254313152z"/>
 <path fill="#fff" d="M25 0.8888888888888891q2.5 0.44444444444444375 5 1.111111111111111t5 1.1111111111111116v10q12.5 2.2222222222222214 25 -1.1111111111111107v10q-12.5 3.333333333333334 -25 1.1111111111111107v10q-2.5 -0.4444444444444464 -5 -1.1111111111111107t-5 -1.1111111111111107v-10q-12.5 -2.2222222222222228 -25 1.1111111111111107v-10q12.5 -3.3333333333333335 25 -1.1111111111111107z"/>
 <path fill="#cf142b" d="M27 1.2800000000000002q1.5 0.31999999999999895 3 0.7199999999999998t3 0.7200000000000006v12q13.5 2.879999999999999 27 -0.7200000000000006v6q-13.5 3.5999999999999996 -27 0.7199999999999989v12q-1.5 -0.3200000000000012 -3 -0.7199999999999989t-3 -0.7199999999999989v-12q-13.5 -2.88 -27 0.7199999999999989v-6q13.5 -3.6 27 -0.7199999999999989z"/>
</g>
</svg>
