<svg width="22" height="22" viewBox="0 0 22 22" fill="none" xmlns="http://www.w3.org/2000/svg">
<g id="SVG" clip-path="url(#clip0_40_3690)">
<g id="Page-1">
<g id="001---Connectivity">
<path id="Shape" d="M0.572549 13.3006C0.477014 13.2799 0.393738 13.2219 0.341288 13.1394C0.288837 13.0569 0.271572 12.9568 0.293343 12.8615L1.31027 8.28115C1.34748 8.11376 1.49594 7.99466 1.66742 7.99463H6.64702C6.84912 7.99463 7.01296 8.15846 7.01296 8.36056V9.82429C7.01296 10.0264 6.84912 10.1902 6.64702 10.1902H3.13773L2.95843 10.9989C4.88577 10.5905 6.7905 11.7813 7.26747 13.6928C7.74444 15.6044 6.62241 17.5504 4.72913 18.0953C2.83584 18.6402 0.850985 17.5884 0.238819 15.7158C0.206843 15.6135 0.221366 15.5022 0.27855 15.4115C0.335734 15.3208 0.429824 15.2598 0.535956 15.2445L1.89722 15.0505C2.18997 15.0092 2.33634 15.0908 2.40953 15.2335C2.69788 15.8149 3.33462 16.137 3.97383 16.0248C4.61303 15.9127 5.10206 15.393 5.17523 14.7482C5.2484 14.1033 4.88824 13.4873 4.29042 13.2348C3.67358 13.0128 2.98464 13.1479 2.49735 13.5864C2.41139 13.6543 2.29995 13.6811 2.19253 13.6596L0.572549 13.3006Z" fill="#1E2F4F"/>
<path id="Shape_2" d="M13.7826 18.2405C11.4529 18.242 9.3947 16.7237 8.70847 14.4974C8.02224 12.271 8.86851 9.8575 10.7948 8.5472C12.7211 7.23691 15.2768 7.33639 17.0954 8.79246C17.1763 8.85628 17.2269 8.95101 17.235 9.05378C17.243 9.15654 17.2078 9.25801 17.1378 9.33367L16.133 10.4066C16.0079 10.5422 15.8006 10.5617 15.6525 10.4516C14.571 9.63548 13.0856 9.61335 11.9802 10.3969C10.8749 11.1804 10.4038 12.5893 10.8157 13.88C11.2276 15.1708 12.4277 16.0465 13.7826 16.0449C14.2243 16.0459 14.6611 15.952 15.0633 15.7693V14.2152H13.5996C13.3975 14.2152 13.2337 14.0514 13.2337 13.8493V12.3855C13.2337 12.1834 13.3975 12.0196 13.5996 12.0196H16.893C17.0951 12.0196 17.2589 12.1834 17.2589 12.3855V16.787C17.259 16.9072 17.2001 17.0197 17.1012 17.0881L16.7858 17.3077C15.9034 17.9179 14.8554 18.2434 13.7826 18.2405Z" fill="#1E2F4F"/>
<path id="Shape_3" d="M21.2844 9.82415C21.0823 9.82415 20.9185 9.66032 20.9185 9.45822C20.9154 6.83219 18.7874 4.70413 16.1613 4.7011C15.9592 4.7011 15.7954 4.53727 15.7954 4.33517C15.7954 4.13307 15.9592 3.96924 16.1613 3.96924C19.1914 3.97267 21.6469 6.42816 21.6503 9.45822C21.6503 9.66032 21.4865 9.82415 21.2844 9.82415Z" fill="#1E2F4F"/>
<path id="Shape_4" d="M19.0894 9.82501C18.8872 9.82501 18.7234 9.66114 18.7234 9.45901C18.7218 8.04474 17.5757 6.89865 16.1614 6.89703C15.9593 6.89703 15.7954 6.73317 15.7954 6.53104C15.7954 6.3289 15.9593 6.16504 16.1614 6.16504C17.9797 6.16726 19.4532 7.64072 19.4554 9.45901C19.4554 9.66114 19.2915 9.82501 19.0894 9.82501Z" fill="#1E2F4F"/>
</g>
</g>
</g>
<defs>
<clipPath id="clip0_40_3690">
<rect width="21.59" height="21.59" fill="white" transform="translate(0.0600586 0.310059)"/>
</clipPath>
</defs>
</svg>
