<svg width="18" height="20" viewBox="0 0 18 20" fill="none" xmlns="http://www.w3.org/2000/svg">
<g clip-path="url(#clip0_40_3712)">
<path d="M14.8318 10.2653H13.7952V10.6173C13.7948 11.306 13.7022 11.9907 13.5205 12.6489C12.6509 12.7222 11.7763 12.6424 10.9291 12.4122C10.9285 12.1704 10.8694 11.9331 10.758 11.7254C11.0721 11.2662 11.3528 10.7799 11.5976 10.2711H10.7373C10.5788 10.5773 10.4058 10.874 10.2189 11.1598C9.99303 11.0533 9.74286 11.0277 9.50328 11.0867C9.26363 11.1456 9.04646 11.2862 8.88179 11.4888C8.70043 11.3734 8.51898 11.2579 8.36355 11.1253C7.31726 10.3479 6.44351 9.31568 5.80837 8.10677C5.91103 7.96503 5.98576 7.80083 6.02772 7.62484C6.0697 7.44885 6.07795 7.26499 6.05197 7.08522C6.84989 6.78386 7.68236 6.61089 8.5242 6.57156L8.97508 5.70007C7.84935 5.67548 6.72844 5.87082 5.66325 6.27721C5.50008 6.10014 5.29524 5.97809 5.0724 5.92516H4.94284C4.88064 5.68276 4.82363 5.44036 4.77698 5.19219C4.73034 4.94401 4.70442 4.7247 4.67851 4.48806C5.45814 4.0255 6.31804 3.75516 7.19981 3.69541C8.08157 3.63566 8.96457 3.78789 9.78878 4.14178L10.3071 3.10869C9.20478 2.61213 8.00973 2.42487 6.82714 2.56337C5.64455 2.70187 4.51065 3.16189 3.52521 3.90296C2.53976 4.64404 1.73297 5.64344 1.17582 6.81325C0.618677 7.98306 0.328247 9.28742 0.330087 10.6116C0.330087 10.8713 0.330087 11.1253 0.366367 11.3792C0.539048 13.4503 1.42233 15.3674 2.83235 16.7316C4.24238 18.0959 6.07054 18.802 7.93631 18.7031C9.80211 18.6042 11.5617 17.7079 12.849 16.2007C14.1363 14.6935 14.8521 12.6916 14.8473 10.6116C14.8473 10.4961 14.8369 10.3807 14.8318 10.2653ZM3.94773 4.99596C3.94773 5.11715 3.97882 5.24412 3.99955 5.36533C4.0462 5.61927 4.1084 5.86745 4.17059 6.11562C3.97212 6.24649 3.81238 6.43918 3.71108 6.66993C3.60977 6.90068 3.57133 7.1594 3.60048 7.41419C2.78604 8.01005 2.05883 8.74198 1.4444 9.58426C1.56832 8.67107 1.85501 7.79471 2.28759 7.00674C2.72017 6.21877 3.2899 5.5351 3.96327 4.99596H3.94773ZM3.94773 14.0629C3.74733 14.1402 3.56865 14.2747 3.42951 14.4529C3.29036 14.6312 3.19563 14.847 3.15475 15.0787H2.82305C1.98605 13.967 1.48545 12.5896 1.39257 11.1426L1.44958 11.0329C2.0986 9.91228 2.94705 8.95175 3.94254 8.21065C4.09179 8.38423 4.28041 8.50966 4.48842 8.57366C4.69644 8.63767 4.91613 8.63787 5.12424 8.57425C5.81747 9.87879 6.76509 10.9932 7.89707 11.8351C8.10956 11.991 8.32724 12.1353 8.54491 12.2738C8.52749 12.4945 8.5596 12.7166 8.6382 12.9202C7.68973 13.7588 6.59568 14.37 5.42484 14.7151C5.28906 14.4326 5.06751 14.213 4.79977 14.0957C4.53203 13.9783 4.23554 13.9708 3.96327 14.0745L3.94773 14.0629ZM7.57573 17.5258C6.52166 17.5261 5.48503 17.2261 4.56448 16.6543L4.70961 16.6196C4.91585 16.5443 5.10015 16.4087 5.24327 16.227C5.38641 16.0453 5.48311 15.8241 5.52332 15.5866C6.84857 15.2102 8.0858 14.5213 9.15131 13.5665C9.40445 13.7312 9.70327 13.7859 9.99038 13.7198C10.2775 13.6537 10.5325 13.4717 10.7062 13.2087C11.4374 13.4204 12.1896 13.529 12.9452 13.532H13.2199C12.7206 14.7275 11.9253 15.7395 10.9272 16.449C9.92928 17.1586 8.77011 17.5361 7.58609 17.5373L7.57573 17.5258Z" fill="#303C42"/>
<path d="M12.2006 2.11134L9.23479 7.76177C9.16583 7.87371 9.12617 8.00457 9.12039 8.13987C9.11453 8.27516 9.14271 8.40959 9.2018 8.52828C9.26081 8.64696 9.34848 8.74524 9.45494 8.81225C9.56148 8.87926 9.68271 8.91237 9.80515 8.9079H15.742C15.8645 8.91237 15.9858 8.87926 16.0922 8.81225C16.1988 8.74524 16.2864 8.64696 16.3455 8.52828C16.4046 8.40959 16.4327 8.27516 16.4269 8.13987C16.421 8.00457 16.3814 7.87371 16.3124 7.76177L13.3465 2.11134C13.2881 2.00077 13.2044 1.90906 13.1038 1.84532C13.0033 1.78158 12.8895 1.74805 12.7736 1.74805C12.6577 1.74805 12.5439 1.78158 12.4433 1.84532C12.3428 1.90906 12.2592 2.00077 12.2006 2.11134Z" fill="#00AEEF"/>
</g>
<defs>
<clipPath id="clip0_40_3712">
<rect width="16.86" height="19" fill="white" transform="translate(0.330078 0.72998)"/>
</clipPath>
</defs>
</svg>
