<svg width="37" height="31" viewBox="0 0 37 31" fill="none" xmlns="http://www.w3.org/2000/svg"><path d="M14.2055 23.9641L32.2362 4.93707L33.0721 5.81913L13.843 26.0636L3.80954 15.4757L4.64489 14.5942L13.4788 23.9631L13.8417 24.348L14.2055 23.9641ZM12.0008 28.7434L12.014 28.7574L12.0283 28.7703C12.2835 29.0011 12.5681 29.1855 12.8808 29.3214C13.1957 29.4582 13.5176 29.5335 13.8426 29.5335C14.1677 29.5335 14.4895 29.4582 14.8044 29.3214C15.1171 29.1855 15.4017 29.0011 15.6569 28.7703L15.6712 28.7574L15.6844 28.7434L35.6494 7.67529C35.8885 7.42294 36.063 7.1224 36.1766 6.78281C36.2862 6.45511 36.341 6.11706 36.341 5.77076C36.341 5.45069 36.284 5.12888 36.1766 4.80748C36.0597 4.45808 35.8665 4.14491 35.606 3.8692L34.1295 2.26248L34.1295 2.26244L34.1243 2.25687C33.8626 1.98072 33.5612 1.7718 33.2195 1.64455C32.9022 1.52638 32.5736 1.4668 32.2362 1.4668C31.9112 1.4668 31.5893 1.54209 31.2744 1.67891C30.9618 1.81476 30.6772 1.99912 30.4219 2.22997L30.4074 2.24312L30.394 2.25736L13.8421 19.7715L6.44139 11.9619C6.18467 11.6909 5.89472 11.482 5.56922 11.3532L5.38524 11.8181L5.56922 11.3532C5.26862 11.2342 4.95988 11.1718 4.6458 11.1718C4.30845 11.1718 3.97979 11.2314 3.66252 11.3495C3.32084 11.4768 3.01946 11.6857 2.75777 11.9619L1.23267 13.5712C0.96625 13.8524 0.775811 14.1748 0.674911 14.5368C0.586944 14.8524 0.541016 15.1659 0.541016 15.4757C0.541016 15.822 0.595871 16.1552 0.708525 16.4722C0.821175 16.7892 0.988991 17.0826 1.2075 17.3516L1.21954 17.3664L1.23267 17.3803L12.0008 28.7434Z" fill="currentcolor" stroke="white"></path></svg>