<svg width="41" height="29" viewBox="0 0 41 29" fill="none" xmlns="http://www.w3.org/2000/svg"><path d="M2.52869 29C1.86019 29 1.27161 28.7525 0.762967 28.2575C0.254322 27.7626 0 27.1802 0 26.5105V2.48946C0 1.81978 0.254322 1.23745 0.762967 0.74247C1.27161 0.24749 1.86019 0 2.52869 0H37.6252C38.3227 0 38.9186 0.24749 39.4127 0.74247C39.9068 1.23745 40.1538 1.81978 40.1538 2.48946V26.5105C40.1538 27.1802 39.9068 27.7626 39.4127 28.2575C38.9186 28.7525 38.3227 29 37.6252 29H2.52869ZM24.4149 27.0346H37.6252C37.7705 27.0346 37.9013 26.9764 38.0175 26.8599C38.1338 26.7435 38.1919 26.627 38.1919 26.5105V2.48946C38.1919 2.37299 38.1338 2.25653 38.0175 2.14006C37.9013 2.02359 37.7705 1.96536 37.6252 1.96536H2.52869C2.38336 1.96536 2.25983 2.02359 2.15811 2.14006C2.05638 2.25653 2.00551 2.37299 2.00551 2.48946V26.5105C2.00551 26.627 2.05638 26.7435 2.15811 26.8599C2.25983 26.9764 2.38336 27.0346 2.52869 27.0346H3.35705C4.60687 25.1712 6.14006 23.7372 7.95665 22.7327C9.77324 21.7282 11.7424 21.2259 13.8642 21.2259C16.015 21.2259 17.9915 21.7282 19.7935 22.7327C21.5956 23.7372 23.1361 25.1712 24.4149 27.0346ZM13.8642 17.863C15.2012 17.863 16.3275 17.4116 17.243 16.509C18.1586 15.6064 18.6164 14.4854 18.6164 13.1461C18.6164 11.8067 18.1586 10.6785 17.243 9.7613C16.3275 8.84413 15.2012 8.38554 13.8642 8.38554C12.5272 8.38554 11.4082 8.84413 10.5071 9.7613C9.60611 10.6785 9.1556 11.8067 9.1556 13.1461C9.1556 14.4854 9.60611 15.6064 10.5071 16.509C11.4082 17.4116 12.5272 17.863 13.8642 17.863ZM25.0689 12.7967H34.0501C34.3989 12.7967 34.6968 12.6729 34.9439 12.4255C35.1909 12.178 35.3145 11.8795 35.3145 11.5301V6.11446C35.3145 5.73594 35.1909 5.43022 34.9439 5.19729C34.6968 4.96436 34.3989 4.84789 34.0501 4.84789H25.0689C24.7201 4.84789 24.4222 4.96436 24.1751 5.19729C23.9281 5.43022 23.8046 5.73594 23.8046 6.11446V11.5301C23.8046 11.8795 23.9281 12.178 24.1751 12.4255C24.4222 12.6729 24.7201 12.7967 25.0689 12.7967ZM5.92934 27.0346H21.8426C20.7672 25.7535 19.5537 24.8 18.2022 24.1739C16.8507 23.5479 15.4047 23.2349 13.8642 23.2349C12.3528 23.2349 10.9141 23.5407 9.54798 24.1521C8.18191 24.7636 6.97569 25.7244 5.92934 27.0346ZM13.8642 15.8976C13.1085 15.8976 12.4618 15.6283 11.9241 15.0896C11.3864 14.551 11.1175 13.9031 11.1175 13.1461C11.1175 12.3891 11.3864 11.7412 11.9241 11.2026C12.4618 10.6639 13.1085 10.3946 13.8642 10.3946C14.6199 10.3946 15.2666 10.6639 15.8043 11.2026C16.342 11.7412 16.6109 12.3891 16.6109 13.1461C16.6109 13.9031 16.342 14.551 15.8043 15.0896C15.2666 15.6283 14.6199 15.8976 13.8642 15.8976ZM29.6031 11.137L25.1125 7.81777V6.15813L29.5595 9.47741L34.0065 6.15813V7.81777L29.6031 11.137Z" fill="currentcolor"></path></svg>