<svg width="38" height="29" viewBox="0 0 38 29" fill="none" xmlns="http://www.w3.org/2000/svg"><path d="M37.041 2.80333V26.1967C37.041 26.97 36.7671 27.6306 36.2193 28.1783C35.6715 28.7261 35.011 29 34.2376 29H3.11095C2.33762 29 1.67706 28.7261 1.12928 28.1783C0.581506 27.6306 0.307617 26.97 0.307617 26.1967V2.80333C0.307617 2.03 0.581506 1.36944 1.12928 0.821667C1.67706 0.273889 2.33762 0 3.11095 0H34.2376C35.011 0 35.6715 0.273889 36.2193 0.821667C36.7671 1.36944 37.041 2.03 37.041 2.80333ZM2.48262 7.87833H34.866V2.80333C34.866 2.64222 34.8015 2.49722 34.6726 2.36833C34.5437 2.23944 34.3987 2.175 34.2376 2.175H3.11095C2.94984 2.175 2.80484 2.23944 2.67595 2.36833C2.54706 2.49722 2.48262 2.64222 2.48262 2.80333V7.87833ZM2.48262 12.9533V26.1967C2.48262 26.3578 2.54706 26.5028 2.67595 26.6317C2.80484 26.7606 2.94984 26.825 3.11095 26.825H34.2376C34.3987 26.825 34.5437 26.7606 34.6726 26.6317C34.8015 26.5028 34.866 26.3578 34.866 26.1967V12.9533H2.48262ZM2.48262 26.825V2.175V26.825Z" fill="currentcolor"></path></svg>