<svg width="21" height="24" viewBox="0 0 24 24" fill="none" xmlns="http://www.w3.org/2000/svg"><path d="M14 7H10.5H6.99997V14H14V7ZM12.6666 12.6667H8.3333V8.33333H12.6666V12.6667ZM21 9.33333V8H18.6666V4.66667C18.6666 3.38333 17.6166 2.33333 16.3333 2.33333H13V0H11.6666V2.33333H9.3333V0H7.99997V2.33333H4.66664C3.3833 2.33333 2.3333 3.38333 2.3333 4.66667V8H-3.05176e-05V9.33333H2.3333V12.6667H-3.05176e-05V14H2.3333V16.3333C2.3333 17.6167 3.3833 18.6667 4.66664 18.6667H7.99997V21H9.3333V18.6667H11.6666V21H13V18.6667H16.3333C17.6166 18.6667 18.6666 17.6167 18.6666 16.3333V14H21V12.6667H18.6666V9.33333H21ZM17.3333 16.3333C17.3333 16.8856 16.8856 17.3333 16.3333 17.3333H4.66664C4.11435 17.3333 3.66664 16.8856 3.66664 16.3333V4.66667C3.66664 4.11438 4.11435 3.66667 4.66664 3.66667H16.3333C16.8856 3.66667 17.3333 4.11438 17.3333 4.66667V16.3333Z" fill="#8A8D92"></path></svg>