<svg width="26" height="24" viewBox="0 0 26 24" fill="none" xmlns="http://www.w3.org/2000/svg"><path fill-rule="evenodd" clip-rule="evenodd" d="M14.1838 3.22012C13.0647 2.4368 11.5753 2.4368 10.4563 3.22013L4.45625 7.42012C3.58744 8.02829 3.07001 9.02211 3.07001 10.0826V19C3.07001 20.2426 4.07737 21.25 5.32001 21.25H19.32C20.5626 21.25 21.57 20.2426 21.57 19V10.0826C21.57 9.02211 21.0526 8.02829 20.1838 7.42012L14.1838 3.22012ZM9.59606 1.99128C11.2316 0.846415 13.4084 0.846412 15.044 1.99128L21.044 6.19128C22.3138 7.08014 23.07 8.53264 23.07 10.0826V19C23.07 21.0711 21.3911 22.75 19.32 22.75H5.32001C3.24894 22.75 1.57001 21.0711 1.57001 19V10.0826C1.57001 8.53264 2.32626 7.08014 3.59606 6.19128L9.59606 1.99128Z" fill="#8A8D92"></path><rect x="11.32" y="15" width="2" height="5" rx="1" fill="#8A8D92"></rect></svg>