<svg width="26" height="24" viewBox="0 0 26 24" fill="none" xmlns="http://www.w3.org/2000/svg"><path d="M18.2649 19.3109H6.87749V7.05704H14.4487V6.1814H6.87749V4.24358H14.4487V3.37731L6.87749 3.36794C5.84488 3.36794 6.00001 4.21197 6.00001 5.24358V22.1243C6.00001 23.1559 5.84488 24 6.87749 24H18.2649C19.2975 24 19.1423 23.1559 19.1423 22.1243V17.4352H18.2649V19.3109ZM18.2649 23.1243H6.87749V20.1865H18.2649V23.1243Z" fill="#8A8D92"></path><path d="M17.9371 13C17.8705 13 17.8138 12.9767 17.7671 12.93C17.7205 12.8833 17.6971 12.8267 17.6971 12.76V12.06C17.2038 12.0133 16.7871 11.8967 16.4471 11.71C16.1071 11.5167 15.8505 11.2867 15.6771 11.02C15.5038 10.7467 15.4105 10.4633 15.3971 10.17C15.3971 10.11 15.4171 10.06 15.4571 10.02C15.5038 9.98 15.5571 9.96 15.6171 9.96H16.5071C16.5871 9.96 16.6505 9.98 16.6971 10.02C16.7438 10.0533 16.7805 10.0967 16.8071 10.15C16.8538 10.2767 16.9305 10.4033 17.0371 10.53C17.1505 10.65 17.3071 10.75 17.5071 10.83C17.7071 10.91 17.9571 10.95 18.2571 10.95C18.7371 10.95 19.0938 10.87 19.3271 10.71C19.5605 10.55 19.6771 10.3333 19.6771 10.06C19.6771 9.86667 19.6138 9.71333 19.4871 9.6C19.3671 9.48 19.1738 9.37333 18.9071 9.28C18.6405 9.18 18.2905 9.07667 17.8571 8.97C17.3638 8.85 16.9471 8.70667 16.6071 8.54C16.2671 8.36667 16.0105 8.15 15.8371 7.89C15.6705 7.63 15.5871 7.3 15.5871 6.9C15.5871 6.38667 15.7738 5.95 16.1471 5.59C16.5205 5.23 17.0371 5.01 17.6971 4.93V4.24C17.6971 4.17333 17.7205 4.11667 17.7671 4.07C17.8138 4.02333 17.8705 4 17.9371 4H18.5471C18.6138 4 18.6705 4.02333 18.7171 4.07C18.7638 4.11667 18.7871 4.17333 18.7871 4.24V4.95C19.2405 5.01667 19.6205 5.15 19.9271 5.35C20.2338 5.55 20.4671 5.78 20.6271 6.04C20.7871 6.29333 20.8705 6.54 20.8771 6.78C20.8771 6.83333 20.8571 6.88333 20.8171 6.93C20.7838 6.97 20.7338 6.99 20.6671 6.99H19.7371C19.6771 6.99 19.6205 6.97667 19.5671 6.95C19.5138 6.92333 19.4705 6.87333 19.4371 6.8C19.4038 6.59333 19.2771 6.41667 19.0571 6.27C18.8371 6.12333 18.5505 6.05 18.1971 6.05C17.8371 6.05 17.5471 6.11667 17.3271 6.25C17.1138 6.38333 17.0071 6.59 17.0071 6.87C17.0071 7.05667 17.0605 7.21333 17.1671 7.34C17.2738 7.46 17.4471 7.56667 17.6871 7.66C17.9338 7.75333 18.2605 7.85333 18.6671 7.96C19.2338 8.08667 19.6938 8.23333 20.0471 8.4C20.4071 8.56667 20.6705 8.78 20.8371 9.04C21.0105 9.29333 21.0971 9.61667 21.0971 10.01C21.0971 10.3967 21.0005 10.7367 20.8071 11.03C20.6205 11.3167 20.3538 11.55 20.0071 11.73C19.6605 11.9033 19.2538 12.0167 18.7871 12.07V12.76C18.7871 12.8267 18.7638 12.8833 18.7171 12.93C18.6705 12.9767 18.6138 13 18.5471 13H17.9371Z" fill="#8A8D92"></path></svg>