<svg width="15" height="18" viewBox="0 0 15 18" fill="none" xmlns="http://www.w3.org/2000/svg"><path d="M10.3256 13.9808H2.27931V4.33461H7.91174V2.72692H2.27931V1.92308H7.91174V0.323422L2.27931 0.315384C1.39421 0.315384 0.670044 1.03885 0.670044 1.92308V16.3923C0.670044 17.2765 1.39421 18 2.27931 18H10.3256C11.2107 18 11.9349 17.2765 11.9349 16.3923V12.3731H10.3256V13.9808ZM10.3256 16.3923H2.27931V15.5885H10.3256V16.3923Z" fill="#303C42"></path><path d="M10.8572 10C10.7905 10 10.7338 9.97667 10.6872 9.93C10.6405 9.88333 10.6172 9.82667 10.6172 9.76V9.06C10.1238 9.01333 9.70715 8.89667 9.36715 8.71C9.02715 8.51667 8.77049 8.28667 8.59715 8.02C8.42382 7.74667 8.33049 7.46333 8.31715 7.17C8.31715 7.11 8.33715 7.06 8.37715 7.02C8.42382 6.98 8.47715 6.96 8.53715 6.96H9.42715C9.50715 6.96 9.57049 6.98 9.61715 7.02C9.66382 7.05333 9.70049 7.09667 9.72715 7.15C9.77382 7.27667 9.85049 7.40333 9.95715 7.53C10.0705 7.65 10.2272 7.75 10.4272 7.83C10.6272 7.91 10.8772 7.95 11.1772 7.95C11.6572 7.95 12.0138 7.87 12.2472 7.71C12.4805 7.55 12.5972 7.33333 12.5972 7.06C12.5972 6.86667 12.5338 6.71333 12.4072 6.6C12.2872 6.48 12.0938 6.37333 11.8272 6.28C11.5605 6.18 11.2105 6.07667 10.7772 5.97C10.2838 5.85 9.86715 5.70667 9.52715 5.54C9.18715 5.36667 8.93049 5.15 8.75715 4.89C8.59049 4.63 8.50715 4.3 8.50715 3.9C8.50715 3.38667 8.69382 2.95 9.06715 2.59C9.44049 2.23 9.95715 2.01 10.6172 1.93V1.24C10.6172 1.17333 10.6405 1.11667 10.6872 1.07C10.7338 1.02333 10.7905 1 10.8572 1H11.4672C11.5338 1 11.5905 1.02333 11.6372 1.07C11.6838 1.11667 11.7072 1.17333 11.7072 1.24V1.95C12.1605 2.01667 12.5405 2.15 12.8472 2.35C13.1538 2.55 13.3872 2.78 13.5472 3.04C13.7072 3.29333 13.7905 3.54 13.7972 3.78C13.7972 3.83333 13.7772 3.88333 13.7372 3.93C13.7038 3.97 13.6538 3.99 13.5872 3.99H12.6572C12.5972 3.99 12.5405 3.97667 12.4872 3.95C12.4338 3.92333 12.3905 3.87333 12.3572 3.8C12.3238 3.59333 12.1972 3.41667 11.9772 3.27C11.7572 3.12333 11.4705 3.05 11.1172 3.05C10.7572 3.05 10.4672 3.11667 10.2472 3.25C10.0338 3.38333 9.92715 3.59 9.92715 3.87C9.92715 4.05667 9.98049 4.21333 10.0872 4.34C10.1938 4.46 10.3672 4.56667 10.6072 4.66C10.8538 4.75333 11.1805 4.85333 11.5872 4.96C12.1538 5.08667 12.6138 5.23333 12.9672 5.4C13.3272 5.56667 13.5905 5.78 13.7572 6.04C13.9305 6.29333 14.0172 6.61667 14.0172 7.01C14.0172 7.39667 13.9205 7.73667 13.7272 8.03C13.5405 8.31667 13.2738 8.55 12.9272 8.73C12.5805 8.90333 12.1738 9.01667 11.7072 9.07V9.76C11.7072 9.82667 11.6838 9.88333 11.6372 9.93C11.5905 9.97667 11.5338 10 11.4672 10H10.8572Z" fill="#00AEEF"></path></svg>